<?xml version="1.0" encoding="utf-8"?>
<!-- Generator: Adobe Illustrator 15.0.0, SVG Export Plug-In . SVG Version: 6.00 Build 0)  -->
<!DOCTYPE svg PUBLIC "-//W3C//DTD SVG 1.1//EN" "http://www.w3.org/Graphics/SVG/1.1/DTD/svg11.dtd">
<svg version="1.1" id="Layer_1" xmlns="http://www.w3.org/2000/svg" xmlns:xlink="http://www.w3.org/1999/xlink" x="0px" y="0px"
	 width="1024px" height="768px" viewBox="0 0 1024 768" enable-background="new 0 0 1024 768" xml:space="preserve">
<g opacity="0.5">
	<path fill="none" stroke="#DDDDDD" stroke-width="1.6235" stroke-miterlimit="10" d="M357.108,1516.132
		c0,0-17.328-430.386,355.034-663.441c372.365-233.053,530.559-663.687,578.462-762.854"/>
	<path fill="none" stroke="#DDDDDD" stroke-width="1.6235" stroke-miterlimit="10" d="M321.381,1489.771
		c0,0,2.251-429.819,374.316-653.307c372.062-223.488,529.764-612.641,599.149-739.808"/>
	<path fill="none" stroke="#DDDDDD" stroke-width="1.6235" stroke-miterlimit="10" d="M285.65,1463.414
		c0,0,21.831-429.256,393.599-643.179c371.763-213.919,528.971-561.594,619.839-716.757"/>
	<path fill="none" stroke="#DDDDDD" stroke-width="1.6235" stroke-miterlimit="10" d="M249.922,1437.053
		c0,0,41.411-428.688,412.877-633.047c371.464-204.351,528.179-510.543,640.529-693.706"/>
	<path fill="none" stroke="#DDDDDD" stroke-width="1.6235" stroke-miterlimit="10" d="M214.192,1410.691
		c0,0,60.993-428.123,432.159-622.913c371.166-194.787,527.386-459.496,661.215-670.654"/>
	<path fill="none" stroke="#DDDDDD" stroke-width="1.6235" stroke-miterlimit="10" d="M178.464,1384.334
		c0,0,80.573-427.559,451.438-612.782c370.866-185.224,526.598-408.451,681.905-647.606"/>
	<path fill="none" stroke="#DDDDDD" stroke-width="1.6235" stroke-miterlimit="10" d="M142.736,1357.973
		c0,0,100.152-426.99,470.721-602.649c370.564-175.655,525.799-357.405,702.593-624.559"/>
	<path fill="none" stroke="#DDDDDD" stroke-width="1.6235" stroke-miterlimit="10" d="M107.005,1331.612
		c0,0,119.735-426.426,490.005-592.519c370.264-166.088,525.005-306.355,723.28-601.509"/>
	<path fill="none" stroke="#DDDDDD" stroke-width="1.6235" stroke-miterlimit="10" d="M71.276,1305.253
		c0,0,139.316-425.86,509.285-582.384c369.964-156.524,524.216-255.313,743.971-578.461"/>
	<path fill="none" stroke="#DDDDDD" stroke-width="1.6235" stroke-miterlimit="10" d="M35.547,1278.894
		c0,0,158.896-425.294,528.565-572.255c369.668-146.96,523.423-204.262,764.661-555.408"/>
	<path fill="none" stroke="#DDDDDD" stroke-width="1.6235" stroke-miterlimit="10" d="M-0.181,1252.534
		c0,0,178.476-424.73,547.845-562.123c369.367-137.392,522.632-153.219,785.35-532.358"/>
	<path fill="none" stroke="#DDDDDD" stroke-width="1.6235" stroke-miterlimit="10" d="M-35.911,1226.177
		c0,0,198.058-424.165,567.127-551.995c369.069-127.826,521.835-102.166,806.035-509.307"/>
	<path fill="none" stroke="#DDDDDD" stroke-width="1.6235" stroke-miterlimit="10" d="M-71.642,1199.816
		c0,0,217.639-423.6,586.409-541.86c368.771-118.264,521.045-51.122,826.727-486.261"/>
	<path fill="none" stroke="#DDDDDD" stroke-width="1.6235" stroke-miterlimit="10" d="M-107.372,1173.455
		c0,0,237.222-423.032,605.691-531.728c368.473-108.696,520.252-0.074,847.415-463.211"/>
	<path fill="none" stroke="#DDDDDD" stroke-width="1.6235" stroke-miterlimit="10" d="M-143.1,1147.095
		c0,0,256.801-422.466,624.97-521.593c368.173-99.132,519.462,50.969,868.105-440.162"/>
	<path fill="none" stroke="#DDDDDD" stroke-width="1.6235" stroke-miterlimit="10" d="M-178.828,1120.735
		c0,0,276.382-421.901,644.252-511.465c367.869-89.561,518.665,102.021,888.792-417.11"/>
	<path fill="none" stroke="#DDDDDD" stroke-width="1.6235" stroke-miterlimit="10" d="M-214.557,1094.376
		c0,0,295.963-421.336,663.534-501.332c367.571-79.997,517.872,153.067,909.48-394.063"/>
	<path fill="none" stroke="#DDDDDD" stroke-width="1.6235" stroke-miterlimit="10" d="M-250.287,1068.018
		c0,0,315.543-420.771,682.815-491.202c367.272-70.433,517.081,204.116,930.171-371.014"/>
	<path fill="none" stroke="#DDDDDD" stroke-width="1.6235" stroke-miterlimit="10" d="M-286.016,1041.656
		c0,0,335.124-420.203,702.099-481.07c366.972-60.864,516.286,255.162,950.854-347.961"/>
	<path fill="none" stroke="#DDDDDD" stroke-width="1.6235" stroke-miterlimit="10" d="M-321.744,1015.297
		c0,0,354.704-419.642,721.378-470.939c366.67-51.297,515.495,306.21,971.547-324.914"/>
	<path fill="none" stroke="#DDDDDD" stroke-width="1.6235" stroke-miterlimit="10" d="M-357.475,988.938
		c0,0,374.286-419.074,740.661-460.808c366.371-41.731,514.7,357.259,992.235-301.864"/>
	<path fill="none" stroke="#DDDDDD" stroke-width="1.6235" stroke-miterlimit="10" d="M-393.205,962.576
		c0,0,393.868-418.507,759.944-450.675c366.071-32.167,513.907,408.306,1012.921-278.813"/>
</g>
<path fill="none" stroke="#DDDDDD" stroke-width="1.6235" stroke-miterlimit="10" d="M-178.828,763.908"/>
</svg>
